#!OML:ASF H:\Terrain\Patient Classification 1\Walking\steve\steve.ASF
:FULLY-SPECIFIED
:DEGREES
268
root 8.51341 16.5587 24.728 6.62966 2.38577 4.40776
lowerback 1.74505 0.144613 -6.45645
upperback -3.3182 -0.0897291 -0.752166
thorax -4.41948 0.161254 2.84227
lowerneck -9.78853 -1.62571 -2.68003
upperneck 14.0255 -2.68695 5.86789
head 5.96928 -1.00447 2.0817
rclavicle -6.03469e-015 -7.33018e-015
rhumerus -64.2596 -17.7543 -69.6859
rradius 22.2529
rwrist -0.212482
rhand -20.7609 -38.4748
rfingers 7.12502
rthumb 5.60517 -68.3807
lclavicle -6.03469e-015 -7.33018e-015
lhumerus -16.1547 -6.84042 86.9871
lradius 39.2254
lwrist 16.1716
lhand -25.4914 -16.8434
lfingers 7.12502
lthumb 1.03692 13.1339
rfemur -42.0212 0.684126 18.4596
rtibia 36.2931
rfoot -16.4458 0.428369
rtoes -9.05051
lfemur 6.55424 5.07609 -27.8416
ltibia 13.9209
lfoot -10.4618 -12.8757
ltoes 3.68171
269
root 8.514 16.5647 24.9973 6.98642 3.05579 4.16436
lowerback 1.78154 0.0455493 -6.14046
upperback -3.69889 -0.22187 -0.608487
thorax -4.82519 0.107554 2.82181
lowerneck -9.78607 -1.90011 -2.87117
upperneck 14.3615 -3.05058 5.8895
head 6.09429 -1.18489 2.09185
rclavicle -1.0706e-014 1.88845e-015
rhumerus -66.3333 -19.1423 -66.2666
rradius 20.9127
rwrist 3.3938
rhand -20.7629 -38.0809
rfingers 7.12502
rthumb 5.60324 -67.9868
lclavicle -1.0706e-014 1.88845e-015
lhumerus -15.509 -7.71038 87.1092
lradius 41.1224
lwrist 17.3233
lhand -25.3455 -16.16
lfingers 7.12502
lthumb 1.17785 13.8165
rfemur -42.3339 1.09577 18.2326
rtibia 32.8162
rfoot -15.9793 0.250063
rtoes -11.4193
lfemur 8.58125 5.04239 -27.247
ltibia 11.277
lfoot -8.97313 -12.97
ltoes 2.06782
270
root 8.50203 16.5572 25.2722 7.1454 3.63322 3.73618
lowerback 1.78631 -0.0503279 -5.75913
upperback -3.88568 -0.334898 -0.46332
thorax -5.01144 0.049199 2.76613
lowerneck -10.9554 -2.20021 -2.95711
upperneck 15.5693 -3.5215 6.07579
head 6.70896 -1.36558 2.12283
rclavicle 3.77943e-015 1.31198e-014
rhumerus -68.2369 -20.4487 -62.9765
rradius 19.7143
rwrist 6.82028
rhand -20.1663 -38.0445
rfingers 7.12502
rthumb 6.17924 -67.9344
lclavicle 3.77943e-015 1.31198e-014
lhumerus -14.6913 -8.60981 86.9543
lradius 43.0034
lwrist 18.315
lhand -25.0205 -15.3449
lfingers 7.12502
lthumb 1.4918 14.6296
rfemur -42.5165 1.93115 18.0705
rtibia 29.95
rfoot -16.0848 -0.0272255
rtoes -10.2165
lfemur 11.862 4.46069 -26.5229
ltibia 6.48851
lfoot -6.67032 -12.0046
ltoes 2.87217
271
root 8.49918 16.5493 25.5414 7.51006 4.30159 3.73956
lowerback 1.26736 -0.267707 -5.76545
upperback -3.75075 -0.57939 -0.346527
thorax -4.54989 -0.0852192 2.90101
lowerneck -9.79725 -1.99056 -3.41547
upperneck 13.9639 -3.1766 6.59538
head 5.99623 -1.22668 2.39434
rclavicle -1.09786e-014 2.28602e-014
rhumerus -69.3874 -21.635 -60.0175
rradius 18.831
rwrist 9.62976
rhand -19.6068 -38.2545
rfingers 7.12502
rthumb 6.71938 -68.1279
lclavicle -1.09786e-014 2.28602e-014
lhumerus -13.3313 -9.30215 86.8397
lradius 44.8665
lwrist 19.6317
lhand -25.5708 -15.826
lfingers 7.12502
lthumb 0.960247 14.1515
rfemur -42.9266 2.13103 17.6157
rtibia 27.4341
rfoot -16.2278 -0.202181
rtoes -12.3804
lfemur 15.7101 3.73546 -26.3858
ltibia 1.59028e-014
lfoot -3.46878 -10.4473
ltoes 3.83094
